<?xml version="1.0" ?><!DOCTYPE svg  PUBLIC '-//W3C//DTD SVG 1.1//EN'  'http://www.w3.org/Graphics/SVG/1.1/DTD/svg11.dtd'><svg style="enable-background:new 0 0 35.999 36.005;" version="1.1" viewBox="0 0 35.999 36.005" xml:space="preserve" xmlns="http://www.w3.org/2000/svg" xmlns:xlink="http://www.w3.org/1999/xlink"><g id="Help"><g id="Layer_11"><g id="ClipView_8"><path d="M0,0v36.005h35.999V0H0z" marker-end="none" marker-start="none" style="fill:none;"/><g><defs><rect height="36.005" id="SVGID_1_" width="35.999" y="0"/></defs><clipPath id="SVGID_2_"><use style="overflow:visible;" xlink:href="#SVGID_1_"/></clipPath><g style="clip-path:url(#SVGID_2_);"><g id="Group_21"><path d="M17.999,1.511c9.107,0,16.499,7.39,16.499,16.497        s-7.392,16.497-16.499,16.497c-9.107,0-16.499-7.39-16.499-16.497S8.892,1.511,17.999,1.511z" marker-end="none" marker-start="none" style="fill:#205DAF;"/><linearGradient gradientTransform="matrix(1 0 0 1 161.943 527.595)" gradientUnits="userSpaceOnUse" id="SVGID_3_" x1="-144.4178" x2="-143.2087" y1="-521.9185" y2="-490.4453"><stop offset="0" style="stop-color:#478DEC"/><stop offset="1" style="stop-color:#205DAF"/></linearGradient><path d="M17.999,33.757        c8.693,0,15.75-7.055,15.75-15.748S26.692,2.261,17.999,2.261c-8.693,0-15.75,7.055-15.75,15.748S9.306,33.757,17.999,33.757z        " marker-end="none" marker-start="none" style="fill:url(#SVGID_3_);"/><linearGradient gradientTransform="matrix(1 0 0 1 167.999 563.336)" gradientUnits="userSpaceOnUse" id="SVGID_4_" x1="-149.4639" x2="-150.5879" y1="-521.7162" y2="-571.2182"><stop offset="0" style="stop-color:#478DEC"/><stop offset="1" style="stop-color:#205DAF"/></linearGradient><path d="M17.999,31.507        c7.451,0,13.499-6.047,13.499-13.498c0-7.451-6.048-13.498-13.499-13.498C10.548,4.511,4.5,10.558,4.5,18.009        C4.5,25.46,10.548,31.507,17.999,31.507z" marker-end="none" marker-start="none" style="fill:url(#SVGID_4_);"/><linearGradient gradientTransform="matrix(1 0 0 1 167.999 530.437)" gradientUnits="userSpaceOnUse" id="SVGID_5_" x1="-150.2808" x2="-149.1218" y1="-521.6955" y2="-483.4475"><stop offset="0" style="stop-color:#FFFFFF"/><stop offset="1" style="stop-color:#D6E6F6"/></linearGradient><path d="M17.999,30.757        c7.037,0,12.75-5.711,12.75-12.748c0-7.037-5.713-12.748-12.75-12.748c-7.037,0-12.75,5.711-12.75,12.748        C5.249,25.046,10.962,30.757,17.999,30.757z" marker-end="none" marker-start="none" style="fill:url(#SVGID_5_);"/><g id="Group_22"><path d="M12.5,14.728c0-0.836,0.269-1.684,0.807-2.543         c0.535-0.856,1.32-1.568,2.348-2.134c1.029-0.561,2.23-0.844,3.604-0.844c1.275,0,2.401,0.236,3.378,0.706         c0.976,0.473,1.731,1.111,2.262,1.922c0.534,0.811,0.8,1.692,0.8,2.645c0,0.747-0.153,1.402-0.455,1.967         c-0.304,0.563-0.666,1.048-1.084,1.459c-0.416,0.408-1.069,1.097-2.151,2.066c-0.301,0.274-0.54,0.513-0.72,0.722         c-0.181,0.205-0.314,0.394-0.402,0.566c-0.088,0.173-0.157,0.346-0.205,0.514c-0.047,0.173-0.121,0.474-0.219,0.905         c-0.166,0.917-0.691,1.376-1.57,1.376c-0.456,0-0.842-0.151-1.155-0.449c-0.312-0.299-0.467-0.746-0.467-1.336         c0-0.74,0.113-1.38,0.341-1.921c0.231-0.541,0.534-1.016,0.913-1.427c0.379-0.409,0.888-0.894,1.529-1.459         c0.563-0.493,0.972-0.865,1.223-1.116c0.251-0.252,0.362-0.531,0.535-0.837c0.172-0.311,0.26-0.646,0.26-1.005         c0-0.705-0.263-1.301-0.788-1.785c-0.523-0.484-1.199-0.724-2.025-0.724c-0.969,0-1.682,0.243-2.139,0.732         c-0.458,0.488-0.845,1.208-1.162,2.158c-0.299,0.996-0.867,1.495-1.704,1.495c-0.49,0-0.906-0.175-1.245-0.522         C12.67,15.51,12.5,15.134,12.5,14.728z" marker-end="none" marker-start="none" style="fill:#FFFFFF;"/><path d="M19.099,25.045c1.093,0,1.98,0.887,1.98,1.98         c0,1.093-0.887,1.98-1.98,1.98s-1.98-0.887-1.98-1.98C17.119,25.932,18.006,25.045,19.099,25.045z" marker-end="none" marker-start="none" style="fill:#FFFFFF;"/></g><g id="Group_23"><linearGradient gradientTransform="matrix(0.0341 0.9994 -0.9991 0.0433 202.5947 576.7023)" gradientUnits="userSpaceOnUse" id="SVGID_6_" x1="-574.4785" x2="-559.6225" y1="165.3053" y2="165.3053"><stop offset="0" style="stop-color:#478DEC"/><stop offset="1" style="stop-color:#205DAF"/></linearGradient><path d="M11.4,13.628c0-0.836,0.269-1.683,0.807-2.543         c0.535-0.856,1.32-1.567,2.348-2.134c1.029-0.561,2.23-0.844,3.604-0.844c1.275,0,2.401,0.236,3.378,0.707         c0.976,0.472,1.732,1.11,2.262,1.921c0.534,0.811,0.8,1.692,0.8,2.645c0,0.747-0.153,1.402-0.455,1.967         c-0.303,0.563-0.666,1.048-1.084,1.459c-0.416,0.408-1.069,1.097-2.151,2.066c-0.301,0.274-0.54,0.514-0.72,0.722         c-0.18,0.205-0.314,0.394-0.402,0.566c-0.088,0.173-0.157,0.346-0.205,0.515c-0.047,0.173-0.12,0.473-0.219,0.904         c-0.165,0.917-0.69,1.376-1.57,1.376c-0.456,0-0.842-0.151-1.154-0.449c-0.313-0.299-0.468-0.746-0.468-1.336         c0-0.74,0.113-1.38,0.341-1.921c0.231-0.541,0.534-1.016,0.913-1.427c0.379-0.409,0.888-0.894,1.529-1.459         c0.563-0.493,0.972-0.865,1.223-1.116c0.251-0.252,0.362-0.531,0.536-0.837c0.171-0.311,0.259-0.646,0.259-1.005         c0-0.705-0.262-1.301-0.787-1.785c-0.524-0.483-1.2-0.724-2.026-0.724c-0.969,0-1.682,0.243-2.139,0.732         c-0.458,0.488-0.845,1.208-1.162,2.158c-0.299,0.996-0.866,1.495-1.704,1.495c-0.49,0-0.906-0.175-1.245-0.522         C11.57,14.41,11.4,14.034,11.4,13.628z" marker-end="none" marker-start="none" style="fill:url(#SVGID_6_);"/><path d="M17.999,23.945c1.093,0,1.98,0.887,1.98,1.98         c0,1.093-0.887,1.98-1.98,1.98c-1.093,0-1.98-0.887-1.98-1.98C16.019,24.832,16.906,23.945,17.999,23.945z" marker-end="none" marker-start="none" style="fill:#205DAF;"/></g></g></g></g></g></g></g><g id="Layer_1"/></svg>